<?xml version="1.0" standalone="no"?>
<!DOCTYPE svg PUBLIC "-//W3C//DTD SVG 1.1//EN" "http://www.w3.org/Graphics/SVG/1.1/DTD/svg11.dtd" >
<svg xmlns="http://www.w3.org/2000/svg" xmlns:xlink="http://www.w3.org/1999/xlink" version="1.1">
<metadata>
Created by FontForge 20170924 at Fri Jan  1 00:00:00 1904
 By www-data
(c)1998 Neale Davidson
</metadata>
<defs>
<font id="AdventureNormal" horiz-adv-x="969" >
  <font-face 
    font-family="Adventure"
    font-weight="600"
    font-stretch="normal"
    units-per-em="2048"
    panose-1="4 2 7 0 0 0 0 0 0 0"
    ascent="1638"
    descent="-410"
    x-height="1268"
    cap-height="1374"
    bbox="-236 -188 1944 1499"
    underline-thickness="50"
    underline-position="-125"
    unicode-range="U+001D-02C7"
  />
<missing-glyph horiz-adv-x="1536" 
d="M256 0v1280h1024v-1280h-1024zM1247 33v1214h-958v-1214h958z" />
    <glyph glyph-name=".notdef" unicode="&#x2c7;" horiz-adv-x="1536" 
d="M256 0v1280h1024v-1280h-1024zM1247 33v1214h-958v-1214h958z" />
    <glyph glyph-name=".notdef" unicode="&#x2db;" horiz-adv-x="1536" 
d="M256 0v1280h1024v-1280h-1024zM1247 33v1214h-958v-1214h958z" />
    <glyph glyph-name=".notdef" unicode="&#x2dd;" horiz-adv-x="1536" 
d="M256 0v1280h1024v-1280h-1024zM1247 33v1214h-958v-1214h958z" />
    <glyph glyph-name=".notdef" unicode="&#xb8;" horiz-adv-x="1536" 
d="M256 0v1280h1024v-1280h-1024zM1247 33v1214h-958v-1214h958z" />
    <glyph glyph-name=".notdef" unicode="&#x2da;" horiz-adv-x="1536" 
d="M256 0v1280h1024v-1280h-1024zM1247 33v1214h-958v-1214h958z" />
    <glyph glyph-name=".notdef" unicode="&#x2d9;" horiz-adv-x="1536" 
d="M256 0v1280h1024v-1280h-1024zM1247 33v1214h-958v-1214h958z" />
    <glyph glyph-name=".notdef" unicode="&#x2d8;" horiz-adv-x="1536" 
d="M256 0v1280h1024v-1280h-1024zM1247 33v1214h-958v-1214h958z" />
    <glyph glyph-name=".notdef" unicode="&#xaf;" horiz-adv-x="1536" 
d="M256 0v1280h1024v-1280h-1024zM1247 33v1214h-958v-1214h958z" />
    <glyph glyph-name=".notdef" unicode="&#x2dc;" horiz-adv-x="1536" 
d="M256 0v1280h1024v-1280h-1024zM1247 33v1214h-958v-1214h958z" />
    <glyph glyph-name=".notdef" unicode="&#x2c6;" horiz-adv-x="1536" 
d="M256 0v1280h1024v-1280h-1024zM1247 33v1214h-958v-1214h958z" />
    <glyph glyph-name=".notdef" unicode="&#x131;" horiz-adv-x="1536" 
d="M256 0v1280h1024v-1280h-1024zM1247 33v1214h-958v-1214h958z" />
    <glyph glyph-name=".notdef" unicode="&#xd9;" horiz-adv-x="1536" 
d="M256 0v1280h1024v-1280h-1024zM1247 33v1214h-958v-1214h958z" />
    <glyph glyph-name=".notdef" unicode="&#xdb;" horiz-adv-x="1536" 
d="M256 0v1280h1024v-1280h-1024zM1247 33v1214h-958v-1214h958z" />
    <glyph glyph-name=".notdef" unicode="&#xda;" horiz-adv-x="1536" 
d="M256 0v1280h1024v-1280h-1024zM1247 33v1214h-958v-1214h958z" />
    <glyph glyph-name=".notdef" unicode="&#xd2;" horiz-adv-x="1536" 
d="M256 0v1280h1024v-1280h-1024zM1247 33v1214h-958v-1214h958z" />
    <glyph glyph-name=".notdef" unicode="&#xe01e;" horiz-adv-x="1536" 
d="M256 0v1280h1024v-1280h-1024zM1247 33v1214h-958v-1214h958z" />
    <glyph glyph-name=".notdef" unicode="&#xd4;" horiz-adv-x="1536" 
d="M256 0v1280h1024v-1280h-1024zM1247 33v1214h-958v-1214h958z" />
    <glyph glyph-name=".notdef" unicode="&#xd3;" horiz-adv-x="1536" 
d="M256 0v1280h1024v-1280h-1024zM1247 33v1214h-958v-1214h958z" />
    <glyph glyph-name=".notdef" unicode="&#xcc;" horiz-adv-x="1536" 
d="M256 0v1280h1024v-1280h-1024zM1247 33v1214h-958v-1214h958z" />
    <glyph glyph-name=".notdef" unicode="&#xcf;" horiz-adv-x="1536" 
d="M256 0v1280h1024v-1280h-1024zM1247 33v1214h-958v-1214h958z" />
    <glyph glyph-name=".notdef" unicode="&#xce;" horiz-adv-x="1536" 
d="M256 0v1280h1024v-1280h-1024zM1247 33v1214h-958v-1214h958z" />
    <glyph glyph-name=".notdef" unicode="&#xcd;" horiz-adv-x="1536" 
d="M256 0v1280h1024v-1280h-1024zM1247 33v1214h-958v-1214h958z" />
    <glyph glyph-name=".notdef" unicode="&#xc8;" horiz-adv-x="1536" 
d="M256 0v1280h1024v-1280h-1024zM1247 33v1214h-958v-1214h958z" />
    <glyph glyph-name=".notdef" unicode="&#xcb;" horiz-adv-x="1536" 
d="M256 0v1280h1024v-1280h-1024zM1247 33v1214h-958v-1214h958z" />
    <glyph glyph-name=".notdef" unicode="&#xc1;" horiz-adv-x="1536" 
d="M256 0v1280h1024v-1280h-1024zM1247 33v1214h-958v-1214h958z" />
    <glyph glyph-name=".notdef" unicode="&#xca;" horiz-adv-x="1536" 
d="M256 0v1280h1024v-1280h-1024zM1247 33v1214h-958v-1214h958z" />
    <glyph glyph-name=".notdef" unicode="&#xc2;" horiz-adv-x="1536" 
d="M256 0v1280h1024v-1280h-1024zM1247 33v1214h-958v-1214h958z" />
    <glyph glyph-name=".notdef" unicode="&#x2030;" horiz-adv-x="1536" 
d="M256 0v1280h1024v-1280h-1024zM1247 33v1214h-958v-1214h958z" />
    <glyph glyph-name=".notdef" unicode="&#x201e;" horiz-adv-x="1536" 
d="M256 0v1280h1024v-1280h-1024zM1247 33v1214h-958v-1214h958z" />
    <glyph glyph-name=".notdef" unicode="&#x201a;" horiz-adv-x="1536" 
d="M256 0v1280h1024v-1280h-1024zM1247 33v1214h-958v-1214h958z" />
    <glyph glyph-name=".notdef" unicode="&#xb7;" horiz-adv-x="1536" 
d="M256 0v1280h1024v-1280h-1024zM1247 33v1214h-958v-1214h958z" />
    <glyph glyph-name=".notdef" unicode="&#x2021;" horiz-adv-x="1536" 
d="M256 0v1280h1024v-1280h-1024zM1247 33v1214h-958v-1214h958z" />
    <glyph glyph-name=".notdef" unicode="&#xfb02;" horiz-adv-x="1536" 
d="M256 0v1280h1024v-1280h-1024zM1247 33v1214h-958v-1214h958z" />
    <glyph glyph-name=".notdef" unicode="&#xfb01;" horiz-adv-x="1536" 
d="M256 0v1280h1024v-1280h-1024zM1247 33v1214h-958v-1214h958z" />
    <glyph glyph-name=".notdef" unicode="&#x203a;" horiz-adv-x="1536" 
d="M256 0v1280h1024v-1280h-1024zM1247 33v1214h-958v-1214h958z" />
    <glyph glyph-name=".notdef" unicode="&#x2039;" horiz-adv-x="1536" 
d="M256 0v1280h1024v-1280h-1024zM1247 33v1214h-958v-1214h958z" />
    <glyph glyph-name=".notdef" unicode="&#x20ac;" horiz-adv-x="1536" 
d="M256 0v1280h1024v-1280h-1024zM1247 33v1214h-958v-1214h958z" />
    <glyph glyph-name=".notdef" unicode="&#x2044;" horiz-adv-x="1536" 
d="M256 0v1280h1024v-1280h-1024zM1247 33v1214h-958v-1214h958z" />
    <glyph glyph-name=".notdef" unicode="&#x178;" horiz-adv-x="1536" 
d="M256 0v1280h1024v-1280h-1024zM1247 33v1214h-958v-1214h958z" />
    <glyph glyph-name=".notdef" unicode="&#xff;" horiz-adv-x="1536" 
d="M256 0v1280h1024v-1280h-1024zM1247 33v1214h-958v-1214h958z" />
    <glyph glyph-name=".notdef" unicode="&#x25ca;" horiz-adv-x="1536" 
d="M256 0v1280h1024v-1280h-1024zM1247 33v1214h-958v-1214h958z" />
    <glyph glyph-name=".notdef" unicode="&#xf7;" horiz-adv-x="1536" 
d="M256 0v1280h1024v-1280h-1024zM1247 33v1214h-958v-1214h958z" />
    <glyph glyph-name=".notdef" unicode="&#x2019;" horiz-adv-x="1536" 
d="M256 0v1280h1024v-1280h-1024zM1247 33v1214h-958v-1214h958z" />
    <glyph glyph-name=".notdef" unicode="&#x2018;" horiz-adv-x="1536" 
d="M256 0v1280h1024v-1280h-1024zM1247 33v1214h-958v-1214h958z" />
    <glyph glyph-name=".notdef" unicode="&#x201d;" horiz-adv-x="1536" 
d="M256 0v1280h1024v-1280h-1024zM1247 33v1214h-958v-1214h958z" />
    <glyph glyph-name=".notdef" unicode="&#x201c;" horiz-adv-x="1536" 
d="M256 0v1280h1024v-1280h-1024zM1247 33v1214h-958v-1214h958z" />
    <glyph glyph-name=".notdef" unicode="&#x2014;" horiz-adv-x="1536" 
d="M256 0v1280h1024v-1280h-1024zM1247 33v1214h-958v-1214h958z" />
    <glyph glyph-name=".notdef" unicode="&#x2013;" horiz-adv-x="1536" 
d="M256 0v1280h1024v-1280h-1024zM1247 33v1214h-958v-1214h958z" />
    <glyph glyph-name=".notdef" unicode="&#x153;" horiz-adv-x="1536" 
d="M256 0v1280h1024v-1280h-1024zM1247 33v1214h-958v-1214h958z" />
    <glyph glyph-name=".notdef" unicode="&#x152;" horiz-adv-x="1536" 
d="M256 0v1280h1024v-1280h-1024zM1247 33v1214h-958v-1214h958z" />
    <glyph glyph-name=".notdef" unicode="&#xd5;" horiz-adv-x="1536" 
d="M256 0v1280h1024v-1280h-1024zM1247 33v1214h-958v-1214h958z" />
    <glyph glyph-name=".notdef" unicode="&#xc3;" horiz-adv-x="1536" 
d="M256 0v1280h1024v-1280h-1024zM1247 33v1214h-958v-1214h958z" />
    <glyph glyph-name=".notdef" unicode="&#xc0;" horiz-adv-x="1536" 
d="M256 0v1280h1024v-1280h-1024zM1247 33v1214h-958v-1214h958z" />
    <glyph glyph-name=".notdef" unicode="&#x2026;" horiz-adv-x="1536" 
d="M256 0v1280h1024v-1280h-1024zM1247 33v1214h-958v-1214h958z" />
    <glyph glyph-name=".notdef" unicode="&#xbb;" horiz-adv-x="1536" 
d="M256 0v1280h1024v-1280h-1024zM1247 33v1214h-958v-1214h958z" />
    <glyph glyph-name=".notdef" unicode="&#xab;" horiz-adv-x="1536" 
d="M256 0v1280h1024v-1280h-1024zM1247 33v1214h-958v-1214h958z" />
    <glyph glyph-name=".notdef" unicode="&#x394;" horiz-adv-x="1536" 
d="M256 0v1280h1024v-1280h-1024zM1247 33v1214h-958v-1214h958z" />
    <glyph glyph-name=".notdef" unicode="&#x2248;" horiz-adv-x="1536" 
d="M256 0v1280h1024v-1280h-1024zM1247 33v1214h-958v-1214h958z" />
    <glyph glyph-name=".notdef" unicode="&#x192;" horiz-adv-x="1536" 
d="M256 0v1280h1024v-1280h-1024zM1247 33v1214h-958v-1214h958z" />
    <glyph glyph-name=".notdef" unicode="&#x221a;" horiz-adv-x="1536" 
d="M256 0v1280h1024v-1280h-1024zM1247 33v1214h-958v-1214h958z" />
    <glyph glyph-name=".notdef" unicode="&#xac;" horiz-adv-x="1536" 
d="M256 0v1280h1024v-1280h-1024zM1247 33v1214h-958v-1214h958z" />
    <glyph glyph-name=".notdef" unicode="&#xa1;" horiz-adv-x="1536" 
d="M256 0v1280h1024v-1280h-1024zM1247 33v1214h-958v-1214h958z" />
    <glyph glyph-name=".notdef" unicode="&#xbf;" horiz-adv-x="1536" 
d="M256 0v1280h1024v-1280h-1024zM1247 33v1214h-958v-1214h958z" />
    <glyph glyph-name=".notdef" unicode="&#xf8;" horiz-adv-x="1536" 
d="M256 0v1280h1024v-1280h-1024zM1247 33v1214h-958v-1214h958z" />
    <glyph glyph-name=".notdef" unicode="&#xe6;" horiz-adv-x="1536" 
d="M256 0v1280h1024v-1280h-1024zM1247 33v1214h-958v-1214h958z" />
    <glyph glyph-name=".notdef" unicode="&#x3a9;" horiz-adv-x="1536" 
d="M256 0v1280h1024v-1280h-1024zM1247 33v1214h-958v-1214h958z" />
    <glyph glyph-name=".notdef" unicode="&#xba;" horiz-adv-x="1536" 
d="M256 0v1280h1024v-1280h-1024zM1247 33v1214h-958v-1214h958z" />
    <glyph glyph-name=".notdef" unicode="&#xaa;" horiz-adv-x="1536" 
d="M256 0v1280h1024v-1280h-1024zM1247 33v1214h-958v-1214h958z" />
    <glyph glyph-name=".notdef" unicode="&#x222b;" horiz-adv-x="1536" 
d="M256 0v1280h1024v-1280h-1024zM1247 33v1214h-958v-1214h958z" />
    <glyph glyph-name=".notdef" unicode="&#x3c0;" horiz-adv-x="1536" 
d="M256 0v1280h1024v-1280h-1024zM1247 33v1214h-958v-1214h958z" />
    <glyph glyph-name=".notdef" unicode="&#x220f;" horiz-adv-x="1536" 
d="M256 0v1280h1024v-1280h-1024zM1247 33v1214h-958v-1214h958z" />
    <glyph glyph-name=".notdef" unicode="&#x2211;" horiz-adv-x="1536" 
d="M256 0v1280h1024v-1280h-1024zM1247 33v1214h-958v-1214h958z" />
    <glyph glyph-name=".notdef" unicode="&#x2202;" horiz-adv-x="1536" 
d="M256 0v1280h1024v-1280h-1024zM1247 33v1214h-958v-1214h958z" />
    <glyph glyph-name=".notdef" unicode="&#xb5;" horiz-adv-x="1536" 
d="M256 0v1280h1024v-1280h-1024zM1247 33v1214h-958v-1214h958z" />
    <glyph glyph-name=".notdef" unicode="&#xa5;" horiz-adv-x="1536" 
d="M256 0v1280h1024v-1280h-1024zM1247 33v1214h-958v-1214h958z" />
    <glyph glyph-name=".notdef" unicode="&#x2265;" horiz-adv-x="1536" 
d="M256 0v1280h1024v-1280h-1024zM1247 33v1214h-958v-1214h958z" />
    <glyph glyph-name=".notdef" unicode="&#x2264;" horiz-adv-x="1536" 
d="M256 0v1280h1024v-1280h-1024zM1247 33v1214h-958v-1214h958z" />
    <glyph glyph-name=".notdef" unicode="&#xb1;" horiz-adv-x="1536" 
d="M256 0v1280h1024v-1280h-1024zM1247 33v1214h-958v-1214h958z" />
    <glyph glyph-name=".notdef" unicode="&#x221e;" horiz-adv-x="1536" 
d="M256 0v1280h1024v-1280h-1024zM1247 33v1214h-958v-1214h958z" />
    <glyph glyph-name=".notdef" unicode="&#xd8;" horiz-adv-x="1536" 
d="M256 0v1280h1024v-1280h-1024zM1247 33v1214h-958v-1214h958z" />
    <glyph glyph-name=".notdef" unicode="&#xc6;" horiz-adv-x="1536" 
d="M256 0v1280h1024v-1280h-1024zM1247 33v1214h-958v-1214h958z" />
    <glyph glyph-name=".notdef" unicode="&#x2260;" horiz-adv-x="1536" 
d="M256 0v1280h1024v-1280h-1024zM1247 33v1214h-958v-1214h958z" />
    <glyph glyph-name=".notdef" unicode="&#xa8;" horiz-adv-x="1536" 
d="M256 0v1280h1024v-1280h-1024zM1247 33v1214h-958v-1214h958z" />
    <glyph glyph-name=".notdef" unicode="&#xb4;" horiz-adv-x="1536" 
d="M256 0v1280h1024v-1280h-1024zM1247 33v1214h-958v-1214h958z" />
    <glyph glyph-name=".notdef" unicode="&#x2122;" horiz-adv-x="1536" 
d="M256 0v1280h1024v-1280h-1024zM1247 33v1214h-958v-1214h958z" />
    <glyph glyph-name=".notdef" unicode="&#xa9;" horiz-adv-x="1536" 
d="M256 0v1280h1024v-1280h-1024zM1247 33v1214h-958v-1214h958z" />
    <glyph glyph-name=".notdef" unicode="&#xae;" horiz-adv-x="1536" 
d="M256 0v1280h1024v-1280h-1024zM1247 33v1214h-958v-1214h958z" />
    <glyph glyph-name=".notdef" unicode="&#xdf;" horiz-adv-x="1536" 
d="M256 0v1280h1024v-1280h-1024zM1247 33v1214h-958v-1214h958z" />
    <glyph glyph-name=".notdef" unicode="&#xb6;" horiz-adv-x="1536" 
d="M256 0v1280h1024v-1280h-1024zM1247 33v1214h-958v-1214h958z" />
    <glyph glyph-name=".notdef" unicode="&#x2022;" horiz-adv-x="1536" 
d="M256 0v1280h1024v-1280h-1024zM1247 33v1214h-958v-1214h958z" />
    <glyph glyph-name=".notdef" unicode="&#xa7;" horiz-adv-x="1536" 
d="M256 0v1280h1024v-1280h-1024zM1247 33v1214h-958v-1214h958z" />
    <glyph glyph-name=".notdef" unicode="&#xa3;" horiz-adv-x="1536" 
d="M256 0v1280h1024v-1280h-1024zM1247 33v1214h-958v-1214h958z" />
    <glyph glyph-name=".notdef" unicode="&#xa2;" horiz-adv-x="1536" 
d="M256 0v1280h1024v-1280h-1024zM1247 33v1214h-958v-1214h958z" />
    <glyph glyph-name=".notdef" unicode="&#xb0;" horiz-adv-x="1536" 
d="M256 0v1280h1024v-1280h-1024zM1247 33v1214h-958v-1214h958z" />
    <glyph glyph-name=".notdef" unicode="&#x2020;" horiz-adv-x="1536" 
d="M256 0v1280h1024v-1280h-1024zM1247 33v1214h-958v-1214h958z" />
    <glyph glyph-name=".notdef" unicode="&#xfc;" horiz-adv-x="1536" 
d="M256 0v1280h1024v-1280h-1024zM1247 33v1214h-958v-1214h958z" />
    <glyph glyph-name=".notdef" unicode="&#xfb;" horiz-adv-x="1536" 
d="M256 0v1280h1024v-1280h-1024zM1247 33v1214h-958v-1214h958z" />
    <glyph glyph-name=".notdef" unicode="&#xf9;" horiz-adv-x="1536" 
d="M256 0v1280h1024v-1280h-1024zM1247 33v1214h-958v-1214h958z" />
    <glyph glyph-name=".notdef" unicode="&#xfa;" horiz-adv-x="1536" 
d="M256 0v1280h1024v-1280h-1024zM1247 33v1214h-958v-1214h958z" />
    <glyph glyph-name=".notdef" unicode="&#xf5;" horiz-adv-x="1536" 
d="M256 0v1280h1024v-1280h-1024zM1247 33v1214h-958v-1214h958z" />
    <glyph glyph-name=".notdef" unicode="&#xf6;" horiz-adv-x="1536" 
d="M256 0v1280h1024v-1280h-1024zM1247 33v1214h-958v-1214h958z" />
    <glyph glyph-name=".notdef" unicode="&#xf4;" horiz-adv-x="1536" 
d="M256 0v1280h1024v-1280h-1024zM1247 33v1214h-958v-1214h958z" />
    <glyph glyph-name=".notdef" unicode="&#xf2;" horiz-adv-x="1536" 
d="M256 0v1280h1024v-1280h-1024zM1247 33v1214h-958v-1214h958z" />
    <glyph glyph-name=".notdef" unicode="&#xf3;" horiz-adv-x="1536" 
d="M256 0v1280h1024v-1280h-1024zM1247 33v1214h-958v-1214h958z" />
    <glyph glyph-name=".notdef" unicode="&#xf1;" horiz-adv-x="1536" 
d="M256 0v1280h1024v-1280h-1024zM1247 33v1214h-958v-1214h958z" />
    <glyph glyph-name=".notdef" unicode="&#xef;" horiz-adv-x="1536" 
d="M256 0v1280h1024v-1280h-1024zM1247 33v1214h-958v-1214h958z" />
    <glyph glyph-name=".notdef" unicode="&#xee;" horiz-adv-x="1536" 
d="M256 0v1280h1024v-1280h-1024zM1247 33v1214h-958v-1214h958z" />
    <glyph glyph-name=".notdef" unicode="&#xec;" horiz-adv-x="1536" 
d="M256 0v1280h1024v-1280h-1024zM1247 33v1214h-958v-1214h958z" />
    <glyph glyph-name=".notdef" unicode="&#xed;" horiz-adv-x="1536" 
d="M256 0v1280h1024v-1280h-1024zM1247 33v1214h-958v-1214h958z" />
    <glyph glyph-name=".notdef" unicode="&#xeb;" horiz-adv-x="1536" 
d="M256 0v1280h1024v-1280h-1024zM1247 33v1214h-958v-1214h958z" />
    <glyph glyph-name=".notdef" unicode="&#xea;" horiz-adv-x="1536" 
d="M256 0v1280h1024v-1280h-1024zM1247 33v1214h-958v-1214h958z" />
    <glyph glyph-name=".notdef" unicode="&#xe8;" horiz-adv-x="1536" 
d="M256 0v1280h1024v-1280h-1024zM1247 33v1214h-958v-1214h958z" />
    <glyph glyph-name=".notdef" unicode="&#xe9;" horiz-adv-x="1536" 
d="M256 0v1280h1024v-1280h-1024zM1247 33v1214h-958v-1214h958z" />
    <glyph glyph-name=".notdef" unicode="&#xe7;" horiz-adv-x="1536" 
d="M256 0v1280h1024v-1280h-1024zM1247 33v1214h-958v-1214h958z" />
    <glyph glyph-name=".notdef" unicode="&#xe5;" horiz-adv-x="1536" 
d="M256 0v1280h1024v-1280h-1024zM1247 33v1214h-958v-1214h958z" />
    <glyph glyph-name=".notdef" unicode="&#xe3;" horiz-adv-x="1536" 
d="M256 0v1280h1024v-1280h-1024zM1247 33v1214h-958v-1214h958z" />
    <glyph glyph-name=".notdef" unicode="&#xe4;" horiz-adv-x="1536" 
d="M256 0v1280h1024v-1280h-1024zM1247 33v1214h-958v-1214h958z" />
    <glyph glyph-name=".notdef" unicode="&#xe2;" horiz-adv-x="1536" 
d="M256 0v1280h1024v-1280h-1024zM1247 33v1214h-958v-1214h958z" />
    <glyph glyph-name=".notdef" unicode="&#xe0;" horiz-adv-x="1536" 
d="M256 0v1280h1024v-1280h-1024zM1247 33v1214h-958v-1214h958z" />
    <glyph glyph-name=".notdef" unicode="&#xe1;" horiz-adv-x="1536" 
d="M256 0v1280h1024v-1280h-1024zM1247 33v1214h-958v-1214h958z" />
    <glyph glyph-name=".notdef" unicode="&#xdc;" horiz-adv-x="1536" 
d="M256 0v1280h1024v-1280h-1024zM1247 33v1214h-958v-1214h958z" />
    <glyph glyph-name=".notdef" unicode="&#xd6;" horiz-adv-x="1536" 
d="M256 0v1280h1024v-1280h-1024zM1247 33v1214h-958v-1214h958z" />
    <glyph glyph-name=".notdef" unicode="&#xd1;" horiz-adv-x="1536" 
d="M256 0v1280h1024v-1280h-1024zM1247 33v1214h-958v-1214h958z" />
    <glyph glyph-name=".notdef" unicode="&#xc9;" horiz-adv-x="1536" 
d="M256 0v1280h1024v-1280h-1024zM1247 33v1214h-958v-1214h958z" />
    <glyph glyph-name=".notdef" unicode="&#xc7;" horiz-adv-x="1536" 
d="M256 0v1280h1024v-1280h-1024zM1247 33v1214h-958v-1214h958z" />
    <glyph glyph-name=".notdef" unicode="&#xc5;" horiz-adv-x="1536" 
d="M256 0v1280h1024v-1280h-1024zM1247 33v1214h-958v-1214h958z" />
    <glyph glyph-name=".notdef" unicode="&#xc4;" horiz-adv-x="1536" 
d="M256 0v1280h1024v-1280h-1024zM1247 33v1214h-958v-1214h958z" />
    <glyph glyph-name=".notdef" horiz-adv-x="1536" 
d="M256 0v1280h1024v-1280h-1024zM1247 33v1214h-958v-1214h958z" />
    <glyph glyph-name=".notdef" horiz-adv-x="1536" 
d="M256 0v1280h1024v-1280h-1024zM1247 33v1214h-958v-1214h958z" />
    <glyph glyph-name=".notdef" horiz-adv-x="1536" 
d="M256 0v1280h1024v-1280h-1024zM1247 33v1214h-958v-1214h958z" />
    <glyph glyph-name=".notdef" horiz-adv-x="1536" 
d="M256 0v1280h1024v-1280h-1024zM1247 33v1214h-958v-1214h958z" />
    <glyph glyph-name=".notdef" horiz-adv-x="1536" 
d="M256 0v1280h1024v-1280h-1024zM1247 33v1214h-958v-1214h958z" />
    <glyph glyph-name=".notdef" horiz-adv-x="1536" 
d="M256 0v1280h1024v-1280h-1024zM1247 33v1214h-958v-1214h958z" />
    <glyph glyph-name=".notdef" horiz-adv-x="1536" 
d="M256 0v1280h1024v-1280h-1024zM1247 33v1214h-958v-1214h958z" />
    <glyph glyph-name=".notdef" horiz-adv-x="1536" 
d="M256 0v1280h1024v-1280h-1024zM1247 33v1214h-958v-1214h958z" />
    <glyph glyph-name=".notdef" horiz-adv-x="1536" 
d="M256 0v1280h1024v-1280h-1024zM1247 33v1214h-958v-1214h958z" />
    <glyph glyph-name=".notdef" horiz-adv-x="1536" 
d="M256 0v1280h1024v-1280h-1024zM1247 33v1214h-958v-1214h958z" />
    <glyph glyph-name=".notdef" horiz-adv-x="1536" 
d="M256 0v1280h1024v-1280h-1024zM1247 33v1214h-958v-1214h958z" />
    <glyph glyph-name=".notdef" horiz-adv-x="1536" 
d="M256 0v1280h1024v-1280h-1024zM1247 33v1214h-958v-1214h958z" />
    <glyph glyph-name=".notdef" horiz-adv-x="1536" 
d="M256 0v1280h1024v-1280h-1024zM1247 33v1214h-958v-1214h958z" />
    <glyph glyph-name=".notdef" horiz-adv-x="1536" 
d="M256 0v1280h1024v-1280h-1024zM1247 33v1214h-958v-1214h958z" />
    <glyph glyph-name=".notdef" horiz-adv-x="1536" 
d="M256 0v1280h1024v-1280h-1024zM1247 33v1214h-958v-1214h958z" />
    <glyph glyph-name=".notdef" horiz-adv-x="1536" 
d="M256 0v1280h1024v-1280h-1024zM1247 33v1214h-958v-1214h958z" />
    <glyph glyph-name=".notdef" horiz-adv-x="1536" 
d="M256 0v1280h1024v-1280h-1024zM1247 33v1214h-958v-1214h958z" />
    <glyph glyph-name=".notdef" horiz-adv-x="1536" 
d="M256 0v1280h1024v-1280h-1024zM1247 33v1214h-958v-1214h958z" />
    <glyph glyph-name=".notdef" horiz-adv-x="1536" 
d="M256 0v1280h1024v-1280h-1024zM1247 33v1214h-958v-1214h958z" />
    <glyph glyph-name=".notdef" horiz-adv-x="1536" 
d="M256 0v1280h1024v-1280h-1024zM1247 33v1214h-958v-1214h958z" />
    <glyph glyph-name=".notdef" unicode="&#xa;" horiz-adv-x="1536" 
d="M256 0v1280h1024v-1280h-1024zM1247 33v1214h-958v-1214h958z" />
    <glyph glyph-name=".notdef" horiz-adv-x="1536" 
d="M256 0v1280h1024v-1280h-1024zM1247 33v1214h-958v-1214h958z" />
    <glyph glyph-name=".notdef" horiz-adv-x="1536" 
d="M256 0v1280h1024v-1280h-1024zM1247 33v1214h-958v-1214h958z" />
    <glyph glyph-name=".notdef" horiz-adv-x="1536" 
d="M256 0v1280h1024v-1280h-1024zM1247 33v1214h-958v-1214h958z" />
    <glyph glyph-name=".notdef" horiz-adv-x="1536" 
d="M256 0v1280h1024v-1280h-1024zM1247 33v1214h-958v-1214h958z" />
    <glyph glyph-name=".notdef" horiz-adv-x="1536" 
d="M256 0v1280h1024v-1280h-1024zM1247 33v1214h-958v-1214h958z" />
    <glyph glyph-name=".notdef" horiz-adv-x="1536" 
d="M256 0v1280h1024v-1280h-1024zM1247 33v1214h-958v-1214h958z" />
    <glyph glyph-name=".notdef" horiz-adv-x="1536" 
d="M256 0v1280h1024v-1280h-1024zM1247 33v1214h-958v-1214h958z" />
    <glyph glyph-name=".null" horiz-adv-x="0" 
 />
    <glyph glyph-name=".null" horiz-adv-x="0" 
 />
    <glyph glyph-name=".null" horiz-adv-x="0" 
 />
    <glyph glyph-name="nonmarkingreturn" unicode="&#xa0;" horiz-adv-x="0" 
 />
    <glyph glyph-name="nonmarkingreturn" unicode="&#xd;" horiz-adv-x="0" 
 />
    <glyph glyph-name="nonmarkingreturn" unicode="&#x9;" horiz-adv-x="0" 
 />
    <glyph glyph-name="one" unicode="1" horiz-adv-x="731" 
d="M786 1257l-272 -698l-154 -389l-270 -41q17 46 43.5 110t44 107t86.5 213q22 53 55.5 139.5t76 193.5t80.5 198.5t69 154.5z" />
    <glyph glyph-name="two" unicode="2" 
d="M346 416l430 20q-41 -104 -84 -223l-692 -43q33 87 66.5 155t60.5 101q113 156 220.5 243.5t200.5 127t195 65.5q42 12 62 41t20 66q0 63 -84 92q-12 4 -49 4q-56 0 -133.5 -9.5t-152.5 -31.5q11 29 37.5 91.5t39.5 97t13 53.5h135q127 -11 133 -13q65 -8 137 -39
q150 -61 150 -210q0 -29 -7 -58q-13 -73 -88 -143t-177.5 -121t-205.5 -76q-43 -15 -86.5 -47.5t-80.5 -71t-60 -71.5z" />
    <glyph glyph-name="three" unicode="3" 
d="M489 655l58 172q127 3 196 35q82 35 82 107q0 63 -84 92q-13 4 -84.5 8t-128.5 4q0 27 -16 94t-16 99h135q127 -11 133 -13q65 -8 137 -39q150 -61 150 -210q0 -29 -7 -58q-10 -57 -58.5 -117t-125.5 -108q14 -23 25.5 -61t11.5 -66q0 -29 -6 -57q-16 -83 -87.5 -161
t-200.5 -130t-300 -58l-264 -18q12 33 34 70.5t39 69t48 108.5q47 -4 131 -4q104 0 186 12t113 27q82 34 82 106q0 64 -84 92q-19 4 -99 4z" />
    <glyph glyph-name="four" unicode="4" horiz-adv-x="1026" 
d="M506 823l250 33l32 -51q103 217 228 463l223 -2q-102 -213 -311 -709q-49 -121 -125 -336l-268 -33q88 234 143 369q16 37 33 78l-295 -33l-254 -20q43 110 104 249q24 55 86 134.5t123 160t92 146.5h221q-21 -56 -64 -124.5t-119 -178t-99 -146.5z" />
    <glyph glyph-name="five" unicode="5" 
d="M438 1192l86 156h78q17 0 131 6q178 10 494 20l-82 -258h-103q-196 0 -317 -6q-57 -2 -131 -8l57 -31q-14 -29 -67 -153q-5 -13 -7 -23t-8 -23q152 -35 238.5 -89t89.5 -189q0 -30 -6 -57q-16 -83 -87.5 -161t-200.5 -130t-300 -58l-264 -18q11 27 21 47.5t22.5 44.5
t26.5 53t43 99q77 2 243 13.5t195 25.5q82 34 82 106q0 64 -84 92q-12 6 -25.5 12t-27.5 10.5t-39 6.5l-271 16l86 222q93 208 127 274z" />
    <glyph glyph-name="six" unicode="6" 
d="M606 655q-76 0 -100 -4q-109 -28 -166 -92q-37 -40 -37 -80q0 -20 10 -45q13 -28 38 -43t73 -22q135 0 217 37q41 16 84 66t43 85q0 31 -42 59.5t-87 34.5q-10 0 -20 2t-13 2zM358 1004q48 80 131.5 127.5t200.5 82.5q21 8 43 13t35 6.5t28.5 3.5t37.5 4q35 -5 75 -14.5
t80 -25t55 -34.5l-149 -180q0 16 -14 28.5t-33 19.5t-45 15.5t-47 14.5q-62 -3 -122 -27.5t-91 -58.5q-104 -114 -135 -209q24 12 69 26t96 22.5t93 8.5q45 0 83 -8.5t74.5 -30t87.5 -67.5q14 -23 25.5 -61t11.5 -66q0 -29 -6 -57q-24 -133 -167.5 -236t-397.5 -113
q-230 63 -230 267q0 67 24 149.5t70 180t117 219.5z" />
    <glyph glyph-name="seven" unicode="7" horiz-adv-x="825" 
d="M258 188l-258 -18q11 29 127 236q29 51 91.5 125t148 160.5t183.5 182t175 170.5q-132 0 -213 -2t-141 -8l-162 -6l70 213l796 27q-16 -38 -31 -75.5t-30.5 -70t-40.5 -69.5q-52 -75 -120 -153.5t-218 -246t-237.5 -272.5t-139.5 -193z" />
    <glyph glyph-name="eight" unicode="8" 
d="M555 655q-76 0 -100 -4q-109 -28 -166 -92q-37 -39 -37 -67q0 -23 24 -39q19 -19 115 -33q24 -4 41 -4q72 0 158 37q82 34 82 106q0 35 -21 60.5t-63 31.5q-11 0 -20 2t-13 2zM705 1065q-63 -3 -116.5 -30.5t-88.5 -66t-35 -67.5q0 -22 22 -39q24 -19 46.5 -26.5
t80.5 -8.5q37 1 57 4.5t38 13t34 17.5q82 35 82 107q0 30 -35 55t-85 41zM782 1241q20 -2 34.5 -4t25.5 -3.5t28 -6.5t31 -13q150 -61 150 -210q0 -29 -7 -58q-10 -57 -58.5 -117t-125.5 -108q14 -23 25.5 -61t11.5 -66q0 -29 -6 -57q-24 -133 -167.5 -236t-397.5 -113
q-172 7 -252 60.5t-80 136.5q0 73 55 152q19 28 45 57q52 58 152 127q-31 43 -31 96q0 67 45 129q21 29 47 58q68 77 149.5 128.5t182.5 81.5q37 11 57.5 15.5t43 7t42.5 4.5z" />
    <glyph glyph-name="nine" unicode="9" 
d="M520 881q76 0 101 4q115 29 174 94q28 31 28 70q0 20 -4 36q-16 30 -34.5 46.5t-63.5 23.5q-141 0 -236 -72q-49 -38 -65.5 -56.5t-16.5 -49.5q0 -33 21.5 -59.5t62.5 -32.5q11 0 21 -2t12 -2zM285 203q34 37 145 169.5t203 253.5t92 148q-58 -27 -130 -46t-134 -19
q-45 0 -83 8t-75 30t-88 68q-37 72 -37 127q0 29 6 57q16 84 82.5 161.5t189 129.5t294.5 58q141 -4 205.5 -81.5t64.5 -193.5q0 -76 -23.5 -151.5t-60.5 -126.5q-27 -52 -124.5 -188.5t-193 -260.5t-141.5 -178z" />
    <glyph glyph-name="zero" unicode="0" horiz-adv-x="1094" 
d="M1231 1044l-62 -40q31 -89 31 -148q0 -41 -14 -125q-43 -246 -182 -393q-158 -168 -404 -168q-192 0 -303 129t-111 340q0 45 7 92q24 223 200 383q170 154 375 154q328 0 463 -224zM946 707q4 24 4 49q0 82 -49 127l45 24q-57 119 -198 119q-136 0 -228 -88
q-94 -88 -117 -231q-6 -29 -6 -58q0 -112 68 -188q65 -76 168 -76q112 0 201 88q86 86 112 234z" />
    <glyph glyph-name="hyphen" unicode="-" horiz-adv-x="1024" 
d="M264 838l680 26l-70 -194l-690 -27z" />
    <glyph glyph-name="q" unicode="q" horiz-adv-x="1094" 
d="M762 193q-76 -23 -162 -23q-192 0 -303 129t-111 340q0 45 7 92q24 223 200 383q170 154 375 154q328 0 463 -224l-62 -40q31 -89 31 -148q0 -41 -14 -125q-43 -246 -182 -393q-15 -16 -31 -31q74 -98 123 -182l-246 -90q-33 65 -72 129q-12 20 -16 29zM838 477
q82 86 108 230q4 24 4 49q0 82 -49 127l45 24q-57 119 -198 119q-136 0 -228 -88q-94 -88 -117 -231q-6 -29 -6 -58q0 -112 68 -188q63 -72 160 -76q-67 88 -111 137l254 31q12 -11 32 -33t38 -43z" />
    <glyph glyph-name="w" unicode="w" horiz-adv-x="1485" 
d="M864 784q-101 -171 -185.5 -300t-174.5 -238q-12 -14 -17.5 -20.5t-15.5 -18.5l-270 -41q14 16 35 47q23 214 40.5 369t41.5 349t44 337h222q-3 -123 -12 -243t-31 -366q44 71 95.5 155.5t120.5 199.5t101.5 168.5t54.5 85.5h13h221q-3 -123 -12 -243t-31 -366
q61 99 118 193.5t112.5 185.5t88 144.5t54.5 85.5l223 -2q-56 -99 -150 -265.5t-165 -287.5t-155.5 -246.5t-162.5 -220.5q-12 -14 -17.5 -20.5t-15.5 -18.5l-270 -41q14 16 35 47q18 162 38 340.5t27 230.5z" />
    <glyph glyph-name="e" unicode="e" horiz-adv-x="825" 
d="M1075 1268q-43 -94 -94 -211l-385 -15l-78 -196l307 10l-69 -194l-318 -11l-39 -92l-53 -143l430 20q-41 -104 -84 -223l-692 -43q43 121 150 389q75 182 221 475l-162 -6l70 213z" />
    <glyph glyph-name="r" unicode="r" 
d="M825 969q0 63 -84 92q-18 6 -55 6q-18 0 -43 -2l-96 -238q131 4 196 35q82 35 82 107zM496 1266h135q127 -11 133 -13q65 -8 137 -39q150 -61 150 -210q0 -29 -7 -58q-43 -233 -329 -301q168 -182 278 -366l-245 -91q-33 66 -72 129q-96 158 -215 297l-23 -57l-129 -346
l-270 -41q43 119 149 387q22 52 37.5 86t50.5 109t60 128t70 144q11 29 37.5 91.5t39.5 97t13 53.5z" />
    <glyph glyph-name="t" unicode="t" horiz-adv-x="834" 
d="M1077 1268q-43 -92 -96 -211l-270 -10l-197 -488l-129 -348l-270 -41q43 121 149 389q78 182 223 479l-276 -10l70 213z" />
    <glyph glyph-name="y" unicode="y" horiz-adv-x="834" 
d="M500 881q57 99 159.5 209t176.5 159l241 19q-93 -76 -206.5 -204t-206 -253.5t-132.5 -200.5l-147 -399l-270 -41q6 18 33.5 86.5t67 161.5t83.5 200l-18 623l223 8z" />
    <glyph glyph-name="u" unicode="u" horiz-adv-x="946" 
d="M1202 1268q-90 -215 -246 -606q-104 -291 -245 -402q-113 -90 -295 -90q-88 0 -174 55q-127 78 -127 234q0 90 45 203q59 147 258 577l235 29q-157 -375 -247 -606q-44 -107 -44 -168q0 -95 101 -95q76 0 131 60q53 59 119 203l270 606h219z" />
    <glyph glyph-name="i" unicode="i" horiz-adv-x="731" 
d="M786 1257l-272 -698l-154 -389l-270 -41q17 46 43.5 110t44 107t86.5 213q22 53 55.5 139.5t76 193.5t80.5 198.5t69 154.5z" />
    <glyph glyph-name="o" unicode="o" horiz-adv-x="1094" 
d="M1231 1044l-62 -40q31 -89 31 -148q0 -41 -14 -125q-43 -246 -182 -393q-158 -168 -404 -168q-192 0 -303 129t-111 340q0 45 7 92q24 223 200 383q170 154 375 154q328 0 463 -224zM946 707q4 24 4 49q0 82 -49 127l45 24q-57 119 -198 119q-136 0 -228 -88
q-94 -88 -117 -231q-6 -29 -6 -58q0 -112 68 -188q65 -76 168 -76q112 0 201 88q86 86 112 234z" />
    <glyph glyph-name="p" unicode="p" 
d="M825 969q0 63 -84 92q-18 6 -55 6q-18 0 -43 -2l-96 -238q131 4 196 35q82 35 82 107zM500 1270q89 0 131 -4q127 -11 133 -13q65 -8 137 -39q150 -61 150 -210q0 -29 -7 -58q-14 -81 -83 -153.5t-195 -120.5t-305 -58l-23 -57l-129 -346l-270 -41q43 119 149 387
q22 53 57 135t83 194t96 218.5t76 165.5z" />
    <glyph glyph-name="bracketleft" unicode="[" horiz-adv-x="985" 
d="M477 612q-10 -30 -33 -102q-22 -74 -57 -205q115 8 195 12q96 7 266 11l-84 -256q-80 2 -139 2h-52q-208 -2 -573 -62v2q0 13 47 179q55 194 98 315q74 207 166 410q31 69 80 161l78 267q45 3 85 3.5t179 4.5q178 10 494 20l-82 -258h-103q-196 0 -317 -6q-57 -2 -131 -8
l57 -31q-7 -14 -47 -122t-74.5 -201.5t-52.5 -135.5z" />
    <glyph glyph-name="bracketright" unicode="]" horiz-adv-x="985" 
d="M391 1079l78 267q45 3 85 3.5t179 4.5q178 10 494 20l-82 -258q-19 -49 -129 -313q0 -1 -43.5 -127.5t-51 -151.5t-22.5 -58.5t-28 -66t-23 -71.5l-84 -256q-80 2 -139 2h-52q-208 -2 -573 -62q12 31 37.5 104t44.5 142l430 41l135 -45l-53 45q5 13 51.5 144t99 276.5
t90 243.5t54.5 135z" />
    <glyph glyph-name="backslash" unicode="\" horiz-adv-x="1073" 
d="M451 729q-18 68 -64 188.5t-101.5 243t-92.5 178.5l327 86q2 -4 37 -76t67 -144.5t68 -171.5t62 -206q21 -84 55.5 -213.5t48.5 -181t38.5 -156t29.5 -151.5l-336 -82q-15 131 -55 319t-84 367z" />
    <glyph glyph-name="a" unicode="a" horiz-adv-x="1026" 
d="M508 750l168 12l29 -37l45 324zM733 1270l223 -2q5 -39 5 -152q-6 -350 -52 -555q-22 -103 -106 -340l-268 -33q31 81 69 204t55 165l-237 -8l-152 -338l-270 -41q13 32 40 90.5t61.5 131t83.5 171t81 162.5q66 130 215 297t252 248z" />
    <glyph glyph-name="s" unicode="s" horiz-adv-x="532" 
d="M690 1083q-55 -10 -98 -26q-105 -39 -129 -92q-14 -31 -14 -64q0 -55 43 -127q63 -106 69 -121q21 -51 21 -108q0 -19 -2 -37q-9 -82 -60 -139q-35 -41 -121 -99q-92 -61 -262 -125l-47 254q68 17 119 39q121 49 127 111v16q0 68 -60 170q-65 109 -65 213q0 27 4 53
q16 111 121 173q92 53 264 116z" />
    <glyph glyph-name="d" unicode="d" 
d="M377 397q121 44 209.5 128.5t139.5 175.5t75 167t24 101q0 63 -84 92q-18 6 -55 6q-18 0 -43 -2l-96 -238zM504 1266q16 4 53 4q10 -1 26.5 -1.5t30 -1t17.5 -1.5q127 -11 133 -13q65 -8 137 -39q150 -61 150 -210q0 -29 -7 -58q-22 -125 -87 -274t-223 -286t-425 -175
l-270 -41q43 119 149 387q7 17 92 211.5t128.5 292.5t95.5 205z" />
    <glyph glyph-name="f" unicode="f" horiz-adv-x="825" 
d="M346 416q-40 -105 -88 -219l-258 -27q43 121 150 389q75 182 221 475l-162 -6l70 213l796 27q-43 -94 -94 -211l-385 -15l-78 -196l307 10l-69 -194l-318 -11l-39 -92z" />
    <glyph glyph-name="g" unicode="g" horiz-adv-x="1094" 
d="M1004 442q-32 -71 -105 -134t-155.5 -100.5t-143.5 -37.5q-192 0 -303 129t-111 340q0 45 7 92q24 223 200 383q170 154 375 154q328 0 463 -224l-285 -137q-57 119 -198 119q-136 0 -228 -88q-94 -88 -117 -231q-6 -29 -6 -58q0 -112 68 -188q65 -76 168 -76q29 0 66 17
t68 44t40 50q-18 3 -47.5 5.5t-52 13t-43.5 34.5l139 147q36 -39 83 -50t126 -14t121.5 -14.5t66.5 -52.5l-102 -147q-16 24 -94 24z" />
    <glyph glyph-name="h" unicode="h" horiz-adv-x="1026" 
d="M1239 1266q-102 -213 -311 -709q-49 -121 -125 -336l-268 -33q88 234 143 369q16 37 33 78l-295 -33l-17 -45l-129 -346l-270 -41q45 119 150 387q106 260 315 711h221v-2l-180 -443l250 33l32 -51q103 217 228 463z" />
    <glyph glyph-name="j" unicode="j" horiz-adv-x="946" 
d="M115 459l247 35q0 -95 101 -95q76 0 131 60q53 59 119 203l270 606h219q-90 -215 -246 -606q-104 -291 -245 -402q-113 -90 -295 -90q-88 0 -174 55q-127 77 -127 234z" />
    <glyph glyph-name="k" unicode="k" horiz-adv-x="1026" 
d="M416 602l-17 -45l-129 -346l-270 -41q45 119 150 387q106 260 315 711h221v-2l-180 -443q162 83 257.5 152t150.5 135.5t102 157.5l223 -2q-30 -61 -80.5 -134t-121 -151.5t-162.5 -151.5t-191 -124q26 -35 58.5 -106t53.5 -147.5t21 -142.5q0 -50 -14 -88l-268 -33
q18 49 18 103q0 59 -20 120.5t-52.5 111.5t-64.5 79z" />
    <glyph glyph-name="l" unicode="l" horiz-adv-x="825" 
d="M471 1245l225 12l-178 -411l-119 -287l-53 -143l430 20q-41 -104 -84 -223l-692 -43q43 121 150 389q75 182 221 475z" />
    <glyph glyph-name="semicolon" unicode=";" horiz-adv-x="512" 
d="M231 868l322 41q-22 -71 -70 -264l-20 -43q-106 0 -316 -37q40 161 84 303zM94 246q193 121 289 121q22 0 39 -7q-24 -79 -70 -264l-24 -112q-50 0 -102 -22.5t-111 -60t-115 -73.5q8 32 24.5 117t33 162t36.5 139z" />
    <glyph glyph-name="quotesingle" unicode="'" horiz-adv-x="512" 
d="M94 1270q193 121 289 121q22 0 39 -7q-24 -79 -70 -264l-24 -112q-50 0 -102 -22.5t-111 -60t-115 -73.5q8 32 24.5 117t33 162t36.5 139z" />
    <glyph glyph-name="z" unicode="z" horiz-adv-x="825" 
d="M373 422l403 14q-41 -104 -84 -223l-692 -43q11 29 127 236q29 51 91.5 125t148 160.5t183.5 182t175 170.5q-132 0 -213 -2t-141 -8l-162 -6l70 213l796 27q-16 -38 -31 -75.5t-30.5 -70t-40.5 -69.5q-58 -83 -134 -167.5t-121.5 -128.5t-172.5 -166t-172 -169z" />
    <glyph glyph-name="x" unicode="x" horiz-adv-x="1026" 
d="M559 827q-11 138 -34 254.5t-60 186.5h221q40 -97 76 -232q154 158 254 232l223 -2q-41 -45 -100.5 -110t-98 -105t-109 -116t-128.5 -138q18 -140 18 -303q0 -165 -18 -273l-268 -33q15 71 22.5 156t9.5 199q-221 -242 -297 -332l-270 -41q109 145 259 321t300 336z" />
    <glyph glyph-name="c" unicode="c" horiz-adv-x="1094" 
d="M1004 338q-156 -168 -404 -168q-192 0 -303 129t-111 340q0 45 7 92q24 223 200 383q170 154 375 154q328 0 463 -224l-285 -137q-57 119 -198 119q-136 0 -228 -88q-94 -88 -117 -231q-6 -29 -6 -58q0 -112 68 -188q65 -76 168 -76q112 0 201 88z" />
    <glyph glyph-name="v" unicode="v" horiz-adv-x="1026" 
d="M541 659q402 476 487 605l223 -2q-51 -106 -138 -235t-194 -268.5t-178.5 -226t-236.5 -286.5q-12 -14 -17.5 -20.5t-15.5 -18.5l-270 -41q14 16 35 47q11 97 18.5 211.5t15.5 266t19.5 288t32.5 289.5h221q0 -45 1.5 -103.5t2.5 -110.5t1.5 -88t0.5 -108q0 -114 -8 -199
z" />
    <glyph glyph-name="b" unicode="b" 
d="M825 969q0 63 -84 92q-18 6 -55 6q-18 0 -43 -2l-96 -238q131 4 196 35q82 35 82 107zM672 559q0 64 -84 92q-19 6 -56 6q-18 0 -43 -2l-96 -237q131 4 197 35q82 34 82 106zM860 721q14 -23 25.5 -61t11.5 -66q0 -29 -6 -57q-16 -83 -87.5 -161t-200.5 -130t-300 -58
l-264 -18q43 119 149 387q33 79 63.5 152t70 161t79.5 170q19 48 54.5 128t40.5 98h135q127 -11 133 -13q65 -8 137 -39q150 -61 150 -210q0 -29 -7 -58q-10 -57 -58.5 -117t-125.5 -108z" />
    <glyph glyph-name="n" unicode="n" horiz-adv-x="1026" 
d="M741 692q201 431 275 576l223 -2q-102 -213 -311 -709q-49 -121 -125 -336l-268 -33q10 56 10 144q0 119 -23 243.5t-51 178.5l-72 -197l-129 -346l-270 -41q45 119 150 387q9 22 34 85t44 107t40 91t92 204l-49 177l242 57l16 -37q29 -44 60.5 -126t54.5 -160.5t40 -155
t17 -107.5z" />
    <glyph glyph-name="m" unicode="m" horiz-adv-x="1260" 
d="M877 414l-74 -193l-268 -33q10 56 10 144q0 119 -23 243.5t-51 178.5l-72 -197l-129 -346l-270 -41q45 119 150 387q9 22 34 85t44 107t40 91t92 204l-49 177l242 57l16 -37q40 -64 82.5 -183t72.5 -233.5t30 -152.5q26 56 81 129t127.5 151t154 152t149.5 125l254 82
l-82 -258q-22 -68 -49 -206.5t-47.5 -308t-26.5 -317.5l-268 -33q0 287 63 594q-74 -71 -143.5 -178t-89.5 -190z" />
    <glyph glyph-name="comma" unicode="," horiz-adv-x="461" 
d="M86 242q162 125 283 125q31 0 53 -7q-24 -79 -70 -264l-24 -112q-50 0 -102 -22.5t-111 -60t-115 -73.5q6 26 20.5 110t30.5 163.5t35 140.5z" />
    <glyph glyph-name="period" unicode="." horiz-adv-x="461" 
d="M100 319l322 41q-24 -79 -70 -264l-20 -43q-106 0 -316 -37q40 161 84 303z" />
    <glyph glyph-name="slash" unicode="/" horiz-adv-x="1073" 
d="M766 713q-28 -32 -110 -125t-186.5 -211.5t-159 -180.5t-89.5 -102l-336 -82q146 194 281.5 359.5t282.5 328.5q57 62 298 318.5t316 331.5l35 4q84 10 231 20q-49 -58 -95 -112t-128.5 -152t-171 -202t-168.5 -195z" />
    <glyph glyph-name="space" unicode=" " horiz-adv-x="973" 
 />
    <glyph glyph-name="exclam" unicode="!" horiz-adv-x="696" 
d="M100 319l322 41q-24 -79 -70 -264l-10 -2q-119 -22 -326 -78q40 161 84 303zM705 1409q0 -53 -27 -170.5t-62.5 -241t-66.5 -215.5l-86 -272l-311 -27q27 74 74 228.5t95 324.5t56 209l31 127q111 17 297 37z" />
    <glyph glyph-name="numbersign" unicode="#" horiz-adv-x="1024" 
d="M571 645l33 117l-80 -4l-32 -117zM309 635l31 117l-156 -7l80 195l127 4l31 113l188 16l-32 -121l79 4l31 113l189 16l-35 -122l102 4l-70 -195l-86 -4l-32 -117l188 8l-74 -202l-170 -6l-16 -62l-184 -16l18 71l-82 -4l-18 -63l-185 -17l21 72l-74 -2l84 203z" />
    <glyph glyph-name="dollar" unicode="$" horiz-adv-x="819" 
d="M610 274q-12 -86 -24 -178l-4 -2q-60 -22 -164 -78q9 59 26 197q-102 -35 -237 -68l-72 254q103 17 178 39q134 36 174 49q12 56 27 168q-70 50 -98 80q-99 109 -99 213q0 27 7 53q24 111 180 173q41 16 90 30q4 38 4 41l16 127q56 17 148 37q0 -41 -10 -158
q69 19 149 39l135 -207q-84 -10 -147 -26q-76 -20 -93 -24.5t-77 -20.5q-5 -39 -11.5 -83t-9.5 -67.5t-8 -50.5q31 -18 47 -37q97 -106 105 -121q30 -51 30 -108q0 -19 -2 -37q-12 -82 -90 -139q-49 -39 -170 -95z" />
    <glyph glyph-name="percent" unicode="%" horiz-adv-x="1073" 
d="M766 713q-28 -32 -110 -125t-186.5 -211.5t-159 -180.5t-89.5 -102l-336 -82q146 194 281.5 359.5t282.5 328.5q57 62 298 318.5t316 331.5l35 4q84 10 231 20q-49 -58 -95 -112t-128.5 -152t-171 -202t-168.5 -195zM446 1270q0 -10 -6 -17.5t-10 -11.5q21 -28 45.5 -58
t40 -56.5t16.5 -49.5q0 -114 -63.5 -188t-165.5 -74q-115 0 -167.5 54.5t-57.5 170.5q0 295 209 295q96 0 159 -65zM340 1135l14 20q-31 25 -80 25q-41 -3 -62.5 -34.5t-21.5 -80.5q0 -22 7 -57q6 -23 38.5 -39.5t71.5 -16.5q40 0 69.5 20t29.5 60q-3 35 -15 52t-30.5 31
t-20.5 20zM1061 553q0 -9 -6.5 -17t-10.5 -12q32 -40 66 -85t37 -79q0 -114 -63.5 -188t-165.5 -74q-115 0 -168 55.5t-58 170.5q0 154 53.5 224t155.5 70q95 0 160 -65zM954 418l15 20q-31 25 -80 25q-84 -6 -84 -115q0 -27 6 -57q6 -23 39 -39t72 -16q40 0 69 19.5
t29 59.5q-1 25 -9 41.5t-21.5 29t-22 18.5t-13.5 14z" />
    <glyph glyph-name="asterisk" unicode="*" horiz-adv-x="1024" 
d="M356 842l-94 133l295 16l51 -71l101 79h270q-3 -7 -160 -139l121 4l-70 -194l-84 -4l103 -146l-291 -16l-74 102q-61 -54 -87 -76.5t-40 -33.5l-311 8l178 143l-84 -4l80 195z" />
    <glyph glyph-name="parenleft" unicode="(" horiz-adv-x="768" 
d="M639 1130q-59 0 -110 -43t-115 -120q-95 -109 -115 -289q-6 -35 -6 -68q0 -139 65 -233q66 -96 168 -96q76 6 213 10l-94 -277q-63 2 -110 2h-41q-191 0 -301 160q-109 158 -109 420q0 55 4 115q27 276 199 473q168 190 372 190q48 3 69 3.5t49 1t112 3.5l-66 -258
q-32 1 -65 2.5t-42.5 2t-27 1t-49.5 0.5z" />
    <glyph glyph-name="parenright" unicode=")" horiz-adv-x="819" 
d="M563 1130q-30 0 -47.5 -0.5t-28 -1t-44 -2t-66.5 -2.5l55 258q82 -3 110 -3.5t50 -1t67 -3.5q205 0 283 -190q33 -84 33 -183q0 -133 -60 -290q-24 -60 -51 -115q-123 -262 -307 -420q-186 -160 -377 -160q-44 0 -180 -4l111 267q48 1 83.5 1.5t77.5 0.5q103 0 213 96
q111 94 179 233q14 33 26 68q37 106 37 190q0 56 -16 99q-27 74 -58.5 118.5t-89.5 44.5z" />
    <glyph glyph-name="Q" unicode="Q" horiz-adv-x="1292" 
d="M893 68q-125 -52 -277 -52q-237 0 -374 160q-138 158 -138 420q0 55 7 115q32 276 247 473q211 190 465 190q406 0 574 -276l-76 -51q37 -107 37 -183q0 -51 -17 -153q-51 -289 -208 -469q109 -152 165 -246l-305 -111q-39 80 -88 160q-6 10 -12 23zM958 455
q62 92 86 223q7 33 7 61q0 103 -62 158l55 31q-71 147 -243 147q-170 0 -285 -108q-117 -109 -143 -289q-6 -35 -6 -68q0 -139 82 -233q81 -96 208 -96q43 0 82 10q-47 61 -98 121l-96 102l360 2q27 -28 53 -61z" />
    <glyph glyph-name="W" unicode="W" horiz-adv-x="1690" 
d="M879 618q-56 -102 -106.5 -188.5t-102 -164.5t-97.5 -130l-335 -82q6 15 12.5 143t12 312.5t8.5 374t3 319.5q0 113 -4 137l324 74q6 -18 6 -80q0 -204 -59 -776q31 57 93.5 162.5t132.5 216t120 182.5q0 205 -2 221l323 74q6 -18 6 -80q0 -110 -20.5 -360t-38.5 -416
q78 141 175.5 298t193 296t153.5 199l35 4q84 10 232 20q-44 -51 -111.5 -166t-220.5 -388t-254 -440t-170 -245l-336 -82q5 14 9.5 89.5t9.5 216t8 259.5z" />
    <glyph glyph-name="E" unicode="E" horiz-adv-x="985" 
d="M1227 1374l-82 -258h-103q-196 0 -317 -6q-57 -2 -131 -8l57 -31q-14 -29 -67 -153q-17 -41 -31 -76l381 14l-80 -231l-377 -13q-10 -30 -33 -102q-22 -74 -57 -205q115 8 195 12q96 7 266 11l-84 -256q-80 2 -139 2h-52q-208 -2 -573 -62v2q0 13 47 179q55 194 98 315
q74 207 166 410q31 69 80 161q-94 -10 -176 -20l78 266q135 10 440 29q178 10 494 20z" />
    <glyph glyph-name="R" unicode="R" horiz-adv-x="1288" 
d="M1231 975q-55 -295 -379 -371q207 -225 344 -454l-305 -111q-39 80 -88 160q-117 194 -264 366l-47 37l-29 -92q-45 -152 -111 -414l-10 -2q-119 -22 -326 -78q41 156 148 494q76 209 168 410q24 53 67 135q-37 -11 -65 -19l-66 303q228 35 394 35q47 0 86 -4
q131 -10 151 -14q66 -10 154 -47q186 -78 186 -265q0 -32 -8 -69zM961 1004q0 71 -95 106q-28 10 -90 10h-22q-56 -2 -150 -28l64 -33q-13 -23 -66 -139q-18 -50 -35 -95l76 2q123 2 221 45q97 41 97 132z" />
    <glyph glyph-name="T" unicode="T" horiz-adv-x="940" 
d="M1225 1374l-82 -258h-107q-155 0 -270 -4l78 -41q-15 -29 -68 -153q-61 -156 -139 -410q-47 -156 -111 -414l-10 -2q-119 -24 -326 -80q41 158 148 496q76 207 168 410q35 75 90 184q-168 -15 -383 -43l78 266q135 10 440 29q180 10 494 20z" />
    <glyph glyph-name="Y" unicode="Y" horiz-adv-x="940" 
d="M668 639q-36 -120 -142 -545l-10 -2q-119 -24 -326 -80q12 45 31.5 107.5t74 230.5t93.5 289q-14 47 -48.5 233t-59 297.5t-52.5 165.5h275q9 -30 18.5 -82.5t17.5 -103t21 -141t21 -136.5q57 89 95.5 152.5t78.5 128t76 113t65 73.5l295 41q-57 -53 -162 -200
t-198.5 -289t-163.5 -252z" />
    <glyph glyph-name="U" unicode="U" horiz-adv-x="1083" 
d="M1309 1374q-37 -90 -119 -354q-96 -305 -129 -397q-125 -355 -287 -492q-135 -115 -354 -115q-111 0 -217 78q-156 111 -156 332q0 90 27 197q84 329 264 716l291 35q-117 -278 -125 -303q-103 -258 -150 -448q-16 -70 -16 -129q0 -195 141 -195q90 0 158 86
q61 76 121 238l280 751h271z" />
    <glyph glyph-name="I" unicode="I" horiz-adv-x="940" 
d="M264 266l30 100t44 142q76 207 168 410q35 75 90 184q-69 -6 -148.5 -20.5t-144.5 -22.5l78 266q33 2 136 12t214 17q36 2 85.5 5.5t90 6t94.5 5t117 3.5l-82 -258q-170 0 -270 -4l78 -41q-15 -29 -68 -153q-61 -156 -139 -410q-29 -92 -62 -219q37 2 97.5 4.5t138.5 5.5
l-82 -258q-170 0 -270 -4q-141 -12 -463 -53l78 266q43 4 89 8t101 8z" />
    <glyph glyph-name="O" unicode="O" horiz-adv-x="1292" 
d="M1397 1098l-76 -51q37 -107 37 -183q0 -51 -17 -153q-53 -303 -225 -488q-194 -207 -500 -207q-237 0 -374 160q-138 158 -138 420q0 55 7 115q32 276 247 473q211 190 465 190q406 0 574 -276zM1044 678q7 33 7 61q0 103 -62 158l55 31q-71 147 -243 147
q-170 0 -285 -108q-117 -109 -143 -289q-6 -35 -6 -68q0 -139 82 -233q81 -96 208 -96q140 0 248 108q107 109 139 289z" />
    <glyph glyph-name="P" unicode="P" horiz-adv-x="1288" 
d="M961 1004q0 71 -95 106q-28 10 -90 10h-22q-56 -2 -150 -28l64 -33q-13 -23 -66 -139q-18 -50 -35 -95l76 2q123 2 221 45q97 41 97 132zM492 602l-29 -92q-45 -152 -111 -414l-10 -2q-119 -22 -326 -78q41 156 148 494q76 209 168 410q24 53 67 135q-37 -11 -65 -19
l-66 303q228 35 394 35q47 0 86 -4q131 -10 151 -14q66 -10 154 -47q186 -78 186 -265q0 -32 -8 -69q-19 -102 -103 -186.5t-245 -135.5t-391 -51z" />
    <glyph glyph-name="braceleft" unicode="{" horiz-adv-x="768" 
d="M639 1130q-59 0 -110 -43t-115 -120q-95 -109 -115 -289q-6 -35 -6 -68q0 -139 65 -233q66 -96 168 -96q76 6 213 10l-94 -277q-63 2 -110 2h-41q-191 0 -301 160q-109 158 -109 420q0 55 4 115q27 276 199 473q168 190 372 190q48 3 69 3.5t49 1t112 3.5l-66 -258
q-32 1 -65 2.5t-42.5 2t-27 1t-49.5 0.5z" />
    <glyph glyph-name="braceright" unicode="}" horiz-adv-x="819" 
d="M563 1130q-30 0 -47.5 -0.5t-28 -1t-44 -2t-66.5 -2.5l55 258q82 -3 110 -3.5t50 -1t67 -3.5q205 0 283 -190q33 -84 33 -183q0 -133 -60 -290q-24 -60 -51 -115q-123 -262 -307 -420q-186 -160 -377 -160q-44 0 -180 -4l111 267q48 1 83.5 1.5t77.5 0.5q103 0 213 96
q111 94 179 233q14 33 26 68q37 106 37 190q0 56 -16 99q-27 74 -58.5 118.5t-89.5 44.5z" />
    <glyph glyph-name="bar" unicode="|" horiz-adv-x="696" 
d="M422 360q-24 -79 -70 -264l-10 -2q-119 -22 -326 -78q40 161 84 303q38 101 153 487t124 439l31 127q111 17 297 37q0 -53 -27 -170.5t-62.5 -241t-66.5 -215.5z" />
    <glyph glyph-name="A" unicode="A" horiz-adv-x="1073" 
d="M733 1090q-17 -24 -66.5 -103t-125 -206t-78.5 -134l180 4l41 -33q23 50 37 178t14 232q0 45 -2 62zM641 451l-268 -13q-41 -66 -75.5 -141t-76.5 -203l-336 -82q10 37 40 103t90.5 187l86.5 173q94 169 182.5 308.5t171 254.5t138 183.5t127.5 148.5q25 3 105 5t124 5
q4 -74 6.5 -113t5.5 -110t3 -137q0 -233 -35 -434q-9 -28 -22.5 -107.5t-30.5 -183t-33 -170.5l-336 -82q35 115 133 408z" />
    <glyph glyph-name="S" unicode="S" horiz-adv-x="696" 
d="M803 1110q-68 -2 -125 -14q-133 -31 -186 -107q-19 -26 -19 -55q0 -45 51 -121q70 -98 78 -121q62 -139 62 -225v-21q-19 -202 -230 -342q-115 -77 -371 -141l-63 330q102 14 174 39q178 59 184 168v12q0 53 -34 119l-66 102q-82 137 -82 228q0 28 4 61q23 162 150 235
q114 68 356 129z" />
    <glyph glyph-name="D" unicode="D" horiz-adv-x="1288" 
d="M567 825l-174 -473q131 30 226.5 93t179.5 149q82 86 116.5 165.5t34.5 158.5q0 83 -11.5 130t-53.5 62q-72 25 -123 25q-129 -7 -193 -25l99 -51q-13 -23 -66 -139q-8 -24 -20 -56.5t-15 -38.5zM381 82l-66 -21q-159 -21 -299 -28q10 36 23.5 77t40.5 115t53.5 150.5
t46.5 140.5q27 74 49.5 139t48.5 136t54 129q24 51 82 161q-14 -3 -44 -23t-36 -22l-66 303q228 35 394 35q47 0 86 -4q131 -10 151 -14q66 -10 154 -47q186 -78 186 -265q0 -32 -8 -69q-13 -126 -62 -252t-148 -247t-257 -222t-383 -172z" />
    <glyph glyph-name="F" unicode="F" horiz-adv-x="985" 
d="M332 59q-146 -16 -332 -47v2q0 13 47 179q55 194 98 315q74 207 166 410q31 69 80 161q-94 -10 -176 -20l78 266q135 10 440 29q178 10 494 20l-82 -258h-103q-196 0 -317 -6q-57 -2 -131 -8l57 -31q-14 -29 -67 -153q-17 -41 -31 -76l381 14l-80 -231l-377 -13
q-19 -63 -33 -102q-22 -64 -61 -216t-51 -235z" />
    <glyph glyph-name="G" unicode="G" horiz-adv-x="1292" 
d="M1176 367q-27 -99 -120.5 -179t-215 -126t-224.5 -46q-237 0 -374 160q-138 158 -138 420q0 55 7 115q32 276 247 473q211 190 465 190q406 0 574 -276l-353 -170q-71 147 -243 147q-170 0 -285 -108q-117 -109 -143 -289q-6 -35 -6 -68q0 -139 82 -233q81 -96 208 -96
q66 0 142.5 38.5t134.5 96.5q-103 16 -205 24l143 193q76 -3 154 -14.5t142 -26t120 -28.5t166 -42l-104 -207q-84 31 -174 52z" />
    <glyph glyph-name="H" unicode="H" horiz-adv-x="1073" 
d="M1329 1374q-84 -153 -250 -514q-61 -153 -139 -409q-35 -115 -96 -326l-336 -82q35 115 133 408q25 65 43 114l-344 -39l-23 -75q-38 -129 -96 -357l-336 -82q35 129 133 439q74 208 166 409q86 187 256 490l35 4q84 10 232 20q-84 -153 -250 -514q-15 -37 -29 -72
l307 39l31 -61q18 41 43 94q84 187 254 490l35 4q84 10 231 20z" />
    <glyph glyph-name="J" unicode="J" horiz-adv-x="1104" 
d="M-236 160l291 67q0 -51 30.5 -92t86.5 -41q98 10 158 86q61 76 121 238q27 72 63 160t73 174.5t72 165.5q35 75 91 184q-69 -6 -148.5 -20.5t-144.5 -22.5l78 266q33 2 136 12t214 17q36 2 85.5 5.5t90 6t94.5 5t117 3.5l-82 -258q-170 0 -270 -4l77 -41
q-14 -29 -67 -153q-112 -287 -176 -500q-125 -355 -287 -492q-135 -114 -354 -114q-135 0 -219 69q-68 57 -94 114.5t-36 164.5z" />
    <glyph glyph-name="K" unicode="K" horiz-adv-x="1073" 
d="M844 125l-336 -82q12 58 12 117q0 128 -51 232t-129 134l-23 -75q-38 -129 -96 -357l-336 -82q35 129 133 439q74 208 166 409q86 187 256 490l35 4q84 10 232 20q-84 -153 -250 -514q-15 -37 -29 -72q123 52 246.5 144.5t226 202.5t162.5 215l35 4q84 10 231 20
q-53 -121 -166.5 -269t-269.5 -277t-332 -193q53 -27 107 -76.5t97 -114t66 -127.5t23 -122q0 -33 -10 -70z" />
    <glyph glyph-name="L" unicode="L" horiz-adv-x="985" 
d="M553 842q-6 -18 -47.5 -151.5t-72.5 -232t-46 -153.5q115 8 195 12q96 7 266 11l-84 -256q-80 2 -139 2h-52q-208 -2 -573 -62v2q0 13 47 179q55 194 98 315q74 207 166 410q12 28 54.5 127.5t78.5 182t52 111.5q45 4 55.5 5t124.5 8l82 12q-12 -23 -56.5 -136.5
t-76 -194t-47.5 -120.5q-5 -13 -11 -33.5t-14 -37.5z" />
    <glyph glyph-name="colon" unicode=":" horiz-adv-x="512" 
d="M231 868l322 41q-22 -71 -70 -264l-20 -43q-106 0 -316 -37q40 161 84 303zM100 319l322 41q-24 -79 -70 -264l-20 -43q-106 0 -316 -37q40 161 84 303z" />
    <glyph glyph-name="quotedbl" unicode="&#x22;" horiz-adv-x="1024" 
d="M94 1270q193 121 289 121q22 0 39 -7q-24 -79 -70 -264l-24 -112q-50 0 -102 -22.5t-111 -60t-115 -73.5q8 32 24.5 117t33 162t36.5 139zM606 1270q193 121 289 121q22 0 39 -7q-24 -79 -70 -264l-24 -112q-50 0 -102 -22.5t-111 -60t-115 -73.5q8 32 24.5 117t33 162
t36.5 139z" />
    <glyph glyph-name="Z" unicode="Z" horiz-adv-x="985" 
d="M823 1122q-17 -1 -210 -21t-222 -22q-94 -10 -176 -20l78 266q135 10 440 29q178 10 494 20l-82 -258q-53 -77 -142.5 -176.5t-205 -215.5t-225 -225.5t-185.5 -193.5q115 8 195 12q96 7 266 11l-84 -256q-80 2 -139 2h-52q-208 -2 -573 -62q13 42 46 152t40 135
q14 46 55.5 106t79.5 104.5t112 124t93 99.5q39 42 191 184.5t206 204.5z" />
    <glyph glyph-name="X" unicode="X" horiz-adv-x="1073" 
d="M711 987q139 150 352 363l35 4q84 10 231 20q-59 -71 -146.5 -171.5t-143 -164.5t-123.5 -142.5t-148 -170.5q31 -158 53 -325t23 -275l-336 -82q4 20 4 55q0 112 -20 305q-104 -120 -137 -157.5t-70.5 -80t-63.5 -71.5l-336 -82q146 194 281.5 359.5t282.5 328.5
q-7 29 -15 29q0 43 -33 166.5t-80.5 276.5t-50.5 167l324 74q18 -43 55 -175.5t62 -250.5z" />
    <glyph glyph-name="C" unicode="C" horiz-adv-x="1292" 
d="M1116 223q-195 -207 -500 -207q-237 0 -374 160q-138 158 -138 420q0 55 7 115q32 276 247 473q211 190 465 190q406 0 574 -276l-353 -170q-71 147 -243 147q-170 0 -285 -108q-117 -109 -143 -289q-6 -35 -6 -68q0 -139 82 -233q81 -96 208 -96q141 0 248 108z" />
    <glyph glyph-name="V" unicode="V" horiz-adv-x="1073" 
d="M573 135l-335 -82q6 15 12.5 143t12 312.5t8.5 374t3 319.5q0 113 -4 137l324 74q6 -18 6 -80q0 -204 -59 -776q99 182 269.5 446.5t252.5 346.5l35 4q84 10 231 20q-49 -59 -126 -191.5t-218 -384t-242 -418.5t-170 -245z" />
    <glyph glyph-name="B" unicode="B" horiz-adv-x="1288" 
d="M961 1004q0 71 -95 106q-28 10 -90 10h-22q-56 -2 -150 -28l64 -33q-13 -23 -66 -139q-18 -50 -35 -95l76 2q123 2 221 45q97 41 97 132zM776 492q0 71 -94 106q-29 10 -90 10h-23t-19 2t-9 2q-11 0 -41 -10l-17 -55q-12 -23 -65 -139q-19 -50 -35 -95l76 2q123 2 221 45
q96 41 96 132zM1004 668q8 -15 17.5 -33.5t15.5 -30.5t12 -34t6 -38q0 -32 -8 -69q-56 -295 -379 -371q-28 -4 -73.5 -9.5t-151.5 -17t-210 -22.5t-217 -27q41 156 148 494q76 209 168 410q24 53 67 135q-37 -11 -65 -19l-66 303q228 35 394 35q47 0 86 -4q131 -10 151 -14
q66 -10 154 -47q186 -78 186 -265q0 -32 -8 -69q-17 -92 -77.5 -171t-149.5 -136z" />
    <glyph glyph-name="N" unicode="N" horiz-adv-x="1073" 
d="M270 1339l324 74q97 -384 139 -721q7 0 41 83t35 85q84 187 254 490l35 4q84 10 231 20q-84 -153 -250 -514q-61 -153 -139 -409q-35 -115 -96 -326l-336 -82q4 20 4 57q0 85 -14.5 233.5t-33 272t-30.5 123.5l-117 -278q-26 -60 -58.5 -182t-37.5 -175l-336 -82
q35 129 133 439q74 208 166 409q52 113 135 268q5 15 5 25q0 29 -24.5 96.5t-29.5 89.5z" />
    <glyph glyph-name="M" unicode="M" horiz-adv-x="1638" 
d="M1774 1499l-156 -647q-5 -22 -46 -197.5t-60 -258t-39 -176t-23 -126.5l-406 -110q35 129 134 438q14 37 34 106t55.5 188.5t50.5 164t38 94.5q-61 -21 -160 -153t-184 -277q-40 -66 -87 -185.5t-81 -234.5l-336 -82q4 20 4 57q0 85 -14.5 233.5t-33 272t-30.5 123.5
l-117 -278q-26 -60 -58.5 -182t-37.5 -175l-336 -82q35 129 133 439q74 208 166 409q52 113 135 268q5 15 5 25q0 29 -24.5 96.5t-29.5 89.5l324 74q11 -38 45 -154.5t57.5 -207t45 -203t24.5 -201.5q85 176 204.5 340.5t239.5 282t215 168.5q15 1 116 21.5t148.5 29
t84.5 10.5z" />
    <glyph glyph-name="less" unicode="&#x3c;" horiz-adv-x="1024" 
d="M221 606l-45 -12l80 194l45 13l643 166l-70 -195l-204 -51l274 -62l-70 -194z" />
    <glyph glyph-name="greater" unicode="&#x3e;" horiz-adv-x="1024" 
d="M475 688l-291 57l80 195l672 -133l-70 -195l-18 4l-2 -4l-662 -174l80 195z" />
    <glyph glyph-name="question" unicode="?" horiz-adv-x="1288" 
d="M152 483q23 63 34.5 96t22.5 64.5t26.5 68.5t34.5 79l373 36q99 12 139 19.5t82 25.5q97 41 97 132q0 71 -95 106q-28 10 -90 10h-22q-56 -2 -150 -28q-26 -7 -147.5 -31.5t-122.5 -24.5l-66 303q228 35 394 35q47 0 86 -4q131 -10 151 -14q66 -10 154 -47
q186 -78 186 -265q0 -32 -8 -69q-19 -102 -103 -186.5t-245 -135.5t-391 -51l-29 -92zM100 319l322 41q-24 -79 -70 -264l-10 -2q-119 -22 -326 -78q40 161 84 303z" />
    <glyph glyph-name="grave" unicode="`" horiz-adv-x="512" 
d="M315 877q-33 0 -74 24t-82.5 48t-74.5 24q-30 0 -59 -19q8 32 24.5 117t33 162t36.5 139q21 12 45 12q47 0 131 -60t115 -71q-17 -56 -48 -185t-47 -191z" />
    <glyph glyph-name="equal" unicode="=" horiz-adv-x="1024" 
d="M264 940l680 27l-70 -195l-690 -27zM264 633l680 26l-70 -194l-690 -27z" />
    <glyph glyph-name="plus" unicode="+" horiz-adv-x="1024" 
d="M436 793l47 161l295 17l-49 -166l205 8l-70 -195l-202 -8l-60 -147l-291 -17l60 154l-197 -8l80 194z" />
    <glyph glyph-name="underscore" unicode="_" horiz-adv-x="985" 
d="M102 299q34 3 238 10t242 8q112 9 454 15l-84 -256q-331 0 -379 -2q-208 -2 -573 -62q17 42 47 121t55 166z" />
    <glyph glyph-name="asciitilde" unicode="~" horiz-adv-x="1075" 
d="M1085 963q-80 -23 -184 -23q-58 0 -129.5 7.5t-162.5 20.5t-177 22t-147 9q-152 0 -260 -45q8 32 24.5 117t33 162t36.5 139q64 10 153 10q85 0 170.5 -9.5t196 -25.5t182 -24t146.5 -8q120 0 213 24q-17 -56 -48 -185t-47 -191z" />
    <glyph glyph-name="asciicircum" unicode="^" horiz-adv-x="1075" 
d="M4 920q9 33 47 95.5t60 135.5l516 197l520 -226q-10 -31 -33 -76t-36 -71.5t-25 -75.5l-467 225z" />
    <glyph glyph-name="at" unicode="@" horiz-adv-x="1292" 
d="M1116 223q-195 -207 -500 -207q-237 0 -374 160q-138 158 -138 420q0 55 7 115q32 276 247 473q211 190 465 190q128 0 218 -40.5t150 -107t130 -179.5q37 -107 37 -191q0 -64 -22 -153t-110 -169t-261 -79q-20 0 -105 -9.5t-123 -9.5q-94 0 -150.5 37t-56.5 131
q0 27 11 88q25 119 97.5 188.5t160.5 69.5q51 -7 77.5 -14.5t48 -37t21.5 -93.5q0 -56 -24 -158q79 0 104 24t25 68q0 16 7 61.5t7 69.5q0 37 -21 58q-71 147 -243 147q-170 0 -285 -108q-117 -109 -143 -289q-6 -35 -6 -68q0 -139 82 -233q81 -96 208 -96q83 0 125 11.5
t90 59.5z" />
    <glyph glyph-name="ampersand" unicode="&#x26;" horiz-adv-x="1288" 
d="M729 885q88 43 127 90t39 94q0 44 -32 79t-77 44q-20 4 -26 4q-46 0 -75 -30t-67 -93zM823 307l-205 338q-4 4 -6 4q-3 0 -16.5 -5l-13.5 -5q-38 -7 -81 -47.5t-76 -95.5t-40 -95q0 -55 46.5 -92.5t121.5 -54.5q24 -6 80 -6q152 0 190 59zM1110 233l111 -184l-217 -65
l-84 145q-140 -55 -289 -55q-155 0 -271 51q-86 38 -131 97.5t-45 137.5q0 40 13 84.5t41 100.5q34 67 111 148.5t188 109.5q-46 54 -82.5 124t-36.5 138q0 56 28 98q65 102 154.5 170t214.5 68q51 -5 114.5 -52.5t110.5 -129.5t50 -187q0 -44 -72 -139t-203 -168l193 -319
q21 26 37 64.5t16 70.5l188 -103q-29 -88 -58 -136t-81 -69z" />
  </font>
</defs>
</svg>
